<svg width="109" height="82" viewBox="0 0 109 82" fill="none" xmlns="http://www.w3.org/2000/svg">
<path d="M10.9 82C7.9025 82 5.31375 81.0177 3.13375 79.0531C1.04458 77.0031 0 74.5688 0 71.75V10.25C0 7.43125 1.04458 5.03958 3.13375 3.075C5.31375 1.025 7.9025 0 10.9 0H98.1C101.097 0 103.641 1.025 105.73 3.075C107.91 5.03958 109 7.43125 109 10.25V71.75C109 74.5688 107.91 77.0031 105.73 79.0531C103.641 81.0177 101.097 82 98.1 82H10.9ZM54.5 46.125L98.1 20.5V10.25L54.5 35.875L10.9 10.25V20.5L54.5 46.125Z" fill="black"/>
</svg>
