<svg width="109" height="94" viewBox="0 0 109 94" fill="none" xmlns="http://www.w3.org/2000/svg">
<path d="M54.5002 85.6423C53.4404 85.6423 52.5321 85.3828 51.7752 84.8637C51.0182 84.3447 50.4505 83.6634 50.072 82.82C48.6338 79.1866 46.8172 75.7804 44.622 72.6012C42.5026 69.4221 39.5127 65.6914 35.6522 61.4093C31.7918 57.1271 28.6505 53.0396 26.2283 49.1468C23.8818 45.2539 22.7085 40.55 22.7085 35.0352C22.7085 27.4441 25.7741 21.0209 31.9054 15.7655C38.1123 10.4453 45.6439 7.78516 54.5002 7.78516C63.3564 7.78516 70.8502 10.4453 76.9814 15.7655C83.1884 21.0209 86.2918 27.4441 86.2918 35.0352C86.2918 40.9393 84.9672 45.8703 82.3179 49.828C79.7443 53.7209 76.7543 57.5813 73.3481 61.4093C69.2606 66.0807 66.1571 69.9735 64.0377 73.0878C61.9939 76.1372 60.2908 79.3813 58.9283 82.82C58.5498 83.7283 57.9443 84.442 57.1116 84.9611C56.3547 85.4152 55.4842 85.6423 54.5002 85.6423ZM54.5002 44.7673C57.6793 44.7673 60.3665 43.8265 62.5616 41.945C64.7568 40.0634 65.8543 37.7602 65.8543 35.0352C65.8543 32.3102 64.7568 30.0069 62.5616 28.1253C60.3665 26.2438 57.6793 25.303 54.5002 25.303C51.321 25.303 48.6338 26.2438 46.4387 28.1253C44.2436 30.0069 43.146 32.3102 43.146 35.0352C43.146 37.7602 44.2436 40.0634 46.4387 41.945C48.6338 43.8265 51.321 44.7673 54.5002 44.7673Z" fill="#1D1B20"/>
</svg>
