<svg width="38" height="30" viewBox="0 0 38 30" fill="none" xmlns="http://www.w3.org/2000/svg">
<path d="M4.33341 29.6673C3.32508 29.6673 2.45425 29.3159 1.72091 28.6132C1.01814 27.8798 0.666748 27.009 0.666748 26.0007V4.00065C0.666748 2.99232 1.01814 2.13676 1.72091 1.43398C2.45425 0.700651 3.32508 0.333984 4.33341 0.333984H33.6667C34.6751 0.333984 35.5306 0.700651 36.2334 1.43398C36.9667 2.13676 37.3334 2.99232 37.3334 4.00065V26.0007C37.3334 27.009 36.9667 27.8798 36.2334 28.6132C35.5306 29.3159 34.6751 29.6673 33.6667 29.6673H4.33341ZM19.0001 16.834L33.6667 7.66732V4.00065L19.0001 13.1673L4.33341 4.00065V7.66732L19.0001 16.834Z" fill="black"/>
</svg>
